PathFileType	4	(X/Y/Z)	./resultDataOpenSim/trcMotMarkerGrf/sub06/qtm-02-03.trc
DataRate	CameraRate	NumFrames	NumMarkers	Units	OrigDataRate	OrigDataStartFrame	OrigNumFrames
250.000000	250.000000	6	24	m	250.000000	65	516
Frame#	Time	L.Toe.Tip			R.Toe.Tip			L.Ankle.Lat			R.Ankle.Lat			L.Ankle.Med			R.Ankle.Med			L.Heel			R.Heel			L.Knee.Lat			R.Knee.Lat			L.Knee.Med			R.Knee.Med			L.Thigh.Upper			R.Thigh.Upper			L.ASIS			R.ASIS			V.Sacral			L.Acromium			R.Acromium			C7			L.Elbow			R.Elbow			L.Wrist.Lat			R.Wrist.Lat
		X1	Y1	Z1	X2	Y2	Z2	X3	Y3	Z3	X4	Y4	Z4	X5	Y5	Z5	X6	Y6	Z6	X7	Y7	Z7	X8	Y8	Z8	X9	Y9	Z9	X10	Y10	Z10	X11	Y11	Z11	X12	Y12	Z12	X13	Y13	Z13	X14	Y14	Z14	X15	Y15	Z15	X16	Y16	Z16	X17	Y17	Z17	X18	Y18	Z18	X19	Y19	Z19	X20	Y20	Z20	X21	Y21	Z21	X22	Y22	Z22	X23	Y23	Z23	X24	Y24	Z24

65	0.256	-1.4227391	0.070269944	-0.077620832	-0.76600895	0.03571273	0.088968032	-1.4114436	0.20060093	-0.10922525	-0.89856548	0.061328883	0.11176162	-1.3903408	0.20292757	-0.028391085	-0.88351822	0.079558669	0.02442809	-1.4525695	0.25983839	-0.06069472	-0.95702182	0.037659534	0.050695195	-1.0709531	0.37103462	-0.13279565	-0.85672446	0.44535876	0.13610668	-1.0637547	0.35469607	-0.01521066	-0.89796868	0.43025307	0.016637525	-1.0558808	0.76225429	-0.13852013	-1.0151781	0.7883911	0.20441693	-0.97354045	0.81173567	-0.10050374	-0.93794146	0.83754813	0.13692864	-1.1443435	0.90004784	0.040557665	-1.0097376	1.3101339	-0.14901611	-1.0197582	1.2840606	0.21380239	-1.0897754	1.3392722	0.031648952	-1.0255744	0.98564064	-0.20735422	-1.1410382	0.99088814	0.24387504	-0.82614101	0.83983991	-0.20352059	-1.0800508	0.7734737	0.32562254
66	0.26	-1.4085013	0.072437913	-0.077499873	-0.76612454	0.035707472	0.089077295	-1.3986777	0.20289443	-0.10919838	-0.89870648	0.061309773	0.11179688	-1.3773829	0.20569769	-0.028308318	-0.8834334	0.079672476	0.02457093	-1.4407719	0.26191253	-0.061103452	-0.95710888	0.037652081	0.050734289	-1.0583113	0.37192385	-0.13328619	-0.85400464	0.44481361	0.13573498	-1.0513725	0.35602546	-0.015274604	-0.89537861	0.43034509	0.017334401	-1.0492575	0.76367621	-0.13797231	-1.0102481	0.789431	0.2045898	-0.96714988	0.8131819	-0.10006057	-0.93195603	0.83859062	0.13763934	-1.1375861	0.90158988	0.041469094	-1.0038464	1.3114525	-0.14893863	-1.0133222	1.2855362	0.21393869	-1.083492	1.3408388	0.031959341	-1.0203222	0.98692929	-0.20660433	-1.1333765	0.99178605	0.24479797	-0.82212086	0.83969208	-0.20389289	-1.0703092	0.77477334	0.32627688
67	0.264	-1.3938597	0.074301626	-0.077342318	-0.76626409	0.035717753	0.089193642	-1.385745	0.20485593	-0.10901874	-0.89890438	0.061300044	0.11184736	-1.3645429	0.20803888	-0.02807552	-0.88339473	0.079783723	0.024726916	-1.4285921	0.26369236	-0.061484092	-0.95720191	0.037643636	0.050768013	-1.0456044	0.37301561	-0.13373674	-0.85141336	0.44435417	0.13546638	-1.0389806	0.35757285	-0.015296231	-0.89294595	0.43049233	0.017956647	-1.0425477	0.76514039	-0.13714174	-1.0048089	0.79057078	0.20491381	-0.96093904	0.81469608	-0.099718268	-0.92607756	0.83966294	0.13834372	-1.1306192	0.90321576	0.043127357	-0.99801255	1.3128458	-0.14886401	-1.0069768	1.2871041	0.21406916	-1.0772461	1.3424405	0.032225644	-1.0151938	0.98829858	-0.20595468	-1.1256983	0.99277884	0.2457314	-0.81819643	0.83961593	-0.20426632	-1.060447	0.77619563	0.32692297
68	0.268	-1.3789038	0.075902637	-0.077203943	-0.7664328	0.035743105	0.089320941	-1.3726906	0.20652009	-0.10871205	-0.89915187	0.061285299	0.11191857	-1.351749	0.20999228	-0.027763593	-0.88340368	0.079890437	0.024897181	-1.4162045	0.26515555	-0.061754206	-0.95730365	0.037635757	0.05079512	-1.0329208	0.37428015	-0.13414127	-0.84894677	0.44397819	0.13531155	-1.0265096	0.35932114	-0.015319528	-0.89077188	0.43069116	0.018579474	-1.0357968	0.76665094	-0.13614604	-0.9984993	0.79190093	0.20553306	-0.95489725	0.81629208	-0.099438855	-0.92027276	0.84077073	0.13906099	-1.1236996	0.90492077	0.044904712	-0.99223218	1.3143142	-0.14878465	-1.0007114	1.2887631	0.21419511	-1.0710393	1.344061	0.032446075	-1.0101871	0.989748	-0.2053644	-1.1180263	0.99384124	0.24665573	-0.81436694	0.83961362	-0.20463743	-1.0505506	0.77772611	0.32754885
69	0.272	-1.3637559	0.077284817	-0.077170821	-0.76663088	0.035781735	0.08946369	-1.359446	0.20792999	-0.10834975	-0.8994393	0.06126298	0.11201574	-1.3388652	0.21163126	-0.027419448	-0.88346715	0.079993724	0.025080581	-1.4037484	0.26628773	-0.061853723	-0.95741742	0.037632015	0.050813737	-1.020286	0.37569549	-0.13445588	-0.8466056	0.44367584	0.13525185	-1.0140244	0.36126433	-0.015353681	-0.88884275	0.43091636	0.019201373	-1.0291051	0.76821424	-0.13521845	-0.99168089	0.7933728	0.20640648	-0.94890372	0.81796376	-0.099158058	-0.91453847	0.84192381	0.1398119	-1.1170287	0.90668687	0.046274697	-0.98650115	1.3158582	-0.14869786	-0.99450797	1.2905078	0.21431783	-1.0648751	1.3456947	0.032626125	-1.0052742	0.99127817	-0.20482908	-1.1103644	0.99496755	0.24756577	-0.8106321	0.83968869	-0.20500662	-1.0407069	0.77934615	0.32814416
70	0.276	-1.3484986	0.078473876	-0.077271976	-0.76685319	0.035830795	0.089622494	-1.3459691	0.20911584	-0.10796867	-0.89975724	0.061239259	0.11213936	-1.3257131	0.2130339	-0.027075829	-0.88359356	0.080096972	0.025275008	-1.3912297	0.26704296	-0.061662051	-0.95754336	0.037634808	0.050825131	-1.0076229	0.37726589	-0.1346347	-0.84438919	0.44343823	0.13526952	-1.0017434	0.36337514	-0.015306368	-0.88704452	0.43114269	0.019758256	-1.0225337	0.76984063	-0.13454191	-0.98489628	0.79487082	0.20740864	-0.94272856	0.8196865	-0.098781878	-0.90887704	0.84311981	0.14060915	-1.1106602	0.90848547	0.047070374	-0.98080839	1.3174734	-0.14860674	-0.98835334	1.29233	0.21443685	-1.0587562	1.3473467	0.03277171	-1.0004615	0.99288409	-0.20446957	-1.1027098	0.9961589	0.24846381	-0.8069874	0.83984632	-0.20537422	-1.0309637	0.78103593	0.32870854
